# Blender v2.80 (sub 74) OBJ File: ''
# www.blender.org
mtllib castle.mtl
o Cube.001
v -0.307459 0.970439 0.307459
v -0.614918 0.970439 0.307459
v -0.614918 0.970439 0.614918
v -0.614918 0.970439 -0.307459
v -0.614918 0.970439 -0.614918
v 0.614918 -0.970439 0.614918
v 0.614918 0.970439 0.614918
v 0.614918 0.970439 -0.614918
v 0.307459 0.970439 0.307459
v 0.307459 0.503640 0.307459
v -0.307459 0.970439 -0.307459
v -0.307459 0.503640 -0.307459
v 0.307459 0.970439 -0.307459
v 0.307459 0.503640 -0.307459
v -0.614918 -0.970439 0.614918
v -0.614918 -0.970439 -0.614918
v 0.614918 -0.970439 -0.614918
v -0.307459 0.503640 0.307459
vt 0.437500 0.062500
vt 0.562500 0.062500
vt 0.562500 0.062500
vt 0.437500 0.062500
vt 0.375000 0.500000
vt 0.375000 0.750000
vt 0.125000 0.750000
vt 0.125000 0.500000
vt 0.375000 0.000000
vt 0.625000 0.000000
vt 0.625000 0.062500
vt 0.437500 0.187500
vt 0.562500 0.187500
vt 0.625000 0.187500
vt 0.625000 0.250000
vt 0.375000 0.250000
vt 0.437500 0.187500
vt 0.625000 0.250000
vt 0.625000 0.500000
vt 0.375000 0.500000
vt 0.375000 0.250000
vt 0.625000 0.750000
vt 0.375000 0.750000
vt 0.625000 0.562500
vt 0.625000 0.687500
vt 0.875000 0.750000
vt 0.625000 0.750000
vt 0.625000 0.500000
vt 0.875000 0.500000
vt 0.562500 0.187500
vt 0.375000 1.000000
vt 0.625000 1.000000
vn 0.0000 0.0000 1.0000
vn 1.0000 0.0000 0.0000
vn 0.0000 1.0000 0.0000
vn -1.0000 0.0000 0.0000
vn 0.0000 0.0000 -1.0000
vn 0.0000 -1.0000 0.0000
usemtl Material.001
s 1
f 13/1/1 11/2/1 12/3/1 14/4/1
f 8/5/2 7/6/2 6/7/2 17/8/2
f 8/9/3 5/10/3 4/11/3 11/2/3 13/1/3 9/12/3 1/13/3 2/14/3 3/15/3 7/16/3
f 9/12/4 13/1/4 14/4/4 10/17/4
f 2/14/3 1/13/3 11/2/3 4/11/3
f 7/18/1 3/19/1 15/20/1 6/21/1
f 5/22/4 16/23/4 15/20/4 3/19/4 2/24/4 4/25/4
f 8/26/5 17/27/5 16/28/5 5/29/5
f 1/13/5 9/12/5 10/17/5 18/30/5
f 15/31/6 16/23/6 17/27/6 6/32/6
f 12/3/3 18/30/3 10/17/3 14/4/3
f 11/2/2 1/13/2 18/30/2 12/3/2
